<?xml version="1.0" encoding="utf-8"?>
<!-- Generator: Adobe Illustrator 16.0.0, SVG Export Plug-In . SVG Version: 6.00 Build 0)  -->
<!DOCTYPE svg PUBLIC "-//W3C//DTD SVG 1.1//EN" "http://www.w3.org/Graphics/SVG/1.1/DTD/svg11.dtd">
<svg version="1.1" xmlns="http://www.w3.org/2000/svg" xmlns:xlink="http://www.w3.org/1999/xlink" x="0px" y="0px" width="800px"
	 height="800px" viewBox="0 0 800 800" enable-background="new 0 0 800 800" xml:space="preserve">
<g id="background">
	<rect fill="#FFFFFF" width="800" height="800"/>
</g>
<g id="objects">
	<g opacity="0.1">
		<g>
			<g>
				<defs>
					<rect id="SVGID_1_" width="800" height="800"/>
				</defs>
				<clipPath id="SVGID_2_">
					<use xlink:href="#SVGID_1_"  overflow="visible"/>
				</clipPath>
				<g clip-path="url(#SVGID_2_)">
					<g>
						<path fill="#EFEBE9" d="M0,0v800h594.525c0,0,86.155-212.146-230.381-190.533c0,0-151.271-18.926-43.413-170.398
							c0,0,342.754-18.654,348.534-20.997c5.779-2.342,141.889-79.255-12.646-182.861H269.734c0,0-90.689,32.166-75.412-235.21H0z"
							/>
						<polygon fill="#6CC642" points="199.929,509.5 76,509.5 76,539.704 182,672 267,672 267,588 						"/>
						<path fill="#00BCD4" d="M-28.455,240.869c6.95-25.708,62.124-61.429,103.138-26.649
							c41.015,34.778,47.242,19.888,63.918,31.901c9.252,6.665,13.484,41.186-28.602,46.314c-61.871,7.541-50.5,80.564-83,40.75
							c-22.463-27.519-5.168-39.407-25.509-51.591C-21.141,268.038-31.753,253.069-28.455,240.869z"/>
						<path fill="#00BCD4" d="M507.8,708.186c29.367-38.573,75.987-28.01,52.639,8.516c-22.665,35.456,27.053,66.662-7.341,56.98
							c-21.245-5.981-21.537-17.498-45.281,4.648C495.83,789.511,477.577,747.882,507.8,708.186z"/>
						
							<line fill="none" stroke="#FFFFFF" stroke-width="5" stroke-miterlimit="10" x1="285.866" y1="293.791" x2="220" y2="427.845"/>
						<line fill="none" stroke="#FFFFFF" stroke-width="5" stroke-miterlimit="10" x1="171" y1="350" x2="257.843" y2="350"/>
						<line fill="none" stroke="#FFFFFF" stroke-width="5" stroke-miterlimit="10" x1="101.982" y1="604.37" x2="68" y2="693"/>
						<line fill="none" stroke="#FFFFFF" stroke-width="5" stroke-miterlimit="10" x1="0" y1="626.146" x2="93.489" y2="626.146"/>
						<path fill="none" stroke="#FFFFFF" stroke-width="5" stroke-miterlimit="10" d="M219.699,750.693
							C219.699,750.693,77,740,51,827"/>
						<path fill="none" stroke="#FFFFFF" stroke-width="5" stroke-miterlimit="10" d="M155.438,754.274
							C155.561,754.255,135.35,693,135.35,693"/>
						<path fill="none" stroke="#FFFFFF" stroke-width="5" stroke-miterlimit="10" d="M135.35,758.504
							C133.447,758.998,42,693,42,693"/>
						
							<line fill="none" stroke="#FFFFFF" stroke-width="5" stroke-miterlimit="10" x1="401.856" y1="704.998" x2="527.929" y2="831.071"/>
						<path fill="none" stroke="#FFFFFF" stroke-width="5" stroke-miterlimit="10" d="M456.199,759.342
							c0,0,12.382-107.342,128.091-93.342"/>
						<line fill="none" stroke="#FFFFFF" stroke-width="5" stroke-miterlimit="10" x1="624.468" y1="305.349" x2="680" y2="260"/>
						<path fill="none" stroke="#FFFFFF" stroke-width="5" stroke-miterlimit="10" d="M242.766,429.471v52.646
							c0,6.011-4.873,10.883-10.883,10.883H51"/>
						<line fill="none" stroke="#FFFFFF" stroke-width="5" stroke-miterlimit="10" x1="51" y1="390.278" x2="0" y2="390.278"/>
						<line fill="none" stroke="#FFFFFF" stroke-width="5" stroke-miterlimit="10" x1="32" y1="625.104" x2="32" y2="390.278"/>
						<path fill="none" stroke="#FFFFFF" stroke-width="5" stroke-miterlimit="10" d="M88.675,84v41.937
							c0,13.952,11.31,25.262,25.262,25.262H177"/>
						<rect x="300.416" y="311.326" fill="#BCAAA4" width="99.581" height="10.802"/>
						<rect x="300.416" y="311.326" fill="#BCAAA4" width="12.154" height="51.719"/>
						<rect x="321.354" y="667.095" fill="#BCAAA4" width="10.802" height="75.808"/>
						<rect x="280.437" y="667.095" fill="#BCAAA4" width="51.719" height="12.154"/>
						<rect x="140" y="303.558" fill="#BCAAA4" width="15.439" height="41.435"/>
						<rect x="111.28" y="303.558" fill="#BCAAA4" width="15.439" height="41.435"/>
						
							<rect x="432.072" y="696.53" transform="matrix(0.7152 -0.6989 0.6989 0.7152 -375.2357 510.8906)" fill="#BCAAA4" width="14.355" height="38.666"/>
						
							<rect x="62.684" y="706.069" transform="matrix(0.6095 -0.7928 0.7928 0.6095 -555.8998 340.7936)" fill="#BCAAA4" width="10.632" height="57.277"/>
						<g>
							<rect x="58.448" y="155.573" fill="#BCAAA4" width="30.778" height="12"/>
						</g>
						<g>
							<rect x="58.448" y="136.795" fill="#BCAAA4" width="12" height="30.778"/>
						</g>
						<path fill="#BCAAA4" d="M640.435,325.231c17.877,0,32.37,14.493,32.37,32.37s-14.493,32.37-32.37,32.37"/>
						<rect x="558.929" y="365" fill="#BCAAA4" width="50.881" height="18.935"/>
						<rect x="589.29" y="272.385" fill="#BCAAA4" width="12.681" height="28.541"/>
						<rect x="589.29" y="312.776" fill="#BCAAA4" width="12.681" height="28.541"/>
						<rect x="68" y="446" fill="#BCAAA4" width="12" height="33"/>
						<rect x="95.982" y="446" fill="#BCAAA4" width="12" height="33"/>
						<rect x="123.963" y="446" fill="#BCAAA4" width="12" height="33"/>
						<rect x="57.837" y="9.5" fill="#BCAAA4" width="12" height="33"/>
						<rect x="57.837" y="53.055" fill="#BCAAA4" width="40.995" height="12"/>
						<rect x="466.657" y="379.991" fill="#BCAAA4" width="40.995" height="12"/>
						<rect x="43.339" y="607.448" fill="#BCAAA4" width="30.661" height="8.975"/>
						<rect x="88.512" y="9.5" fill="#BCAAA4" width="12" height="55.5"/>
						<rect x="13.5" y="640.172" fill="#BCAAA4" width="12" height="33"/>
						<rect x="51.837" y="640.172" fill="#BCAAA4" width="12" height="33"/>
						
							<rect x="256" y="366.169" transform="matrix(0.8731 0.4876 -0.4876 0.8731 219.8368 -79.1772)" fill="#BCAAA4" width="12" height="33"/>
						<polygon fill="#BCAAA4" points="204,413.185 193.523,407.333 218.903,358.868 229.38,364.719 						"/>
						<rect x="151.945" y="446" fill="#BCAAA4" width="12" height="33"/>
						<rect x="151.945" y="468" fill="#BCAAA4" width="67.754" height="11"/>
						
							<rect x="439.113" y="667.672" transform="matrix(0.6994 -0.7147 0.7147 0.6994 -340.8596 535.8917)" fill="#BCAAA4" width="55.088" height="11"/>
						<rect x="19.5" y="737.774" fill="#BCAAA4" width="12" height="33"/>
						<rect x="151.945" y="772.635" fill="#BCAAA4" width="67.754" height="11"/>
						<polygon fill="#6CC642" points="471.712,272.385 471.712,292.457 521.519,342.263 575,342.263 575,272.385 						"/>
						<rect x="68" y="375" fill="#BCAAA4" width="16.991" height="16.991"/>
						<rect x="99.486" y="375" fill="#BCAAA4" width="68.014" height="16.991"/>
						
							<line fill="none" stroke="#FFFFFF" stroke-width="5" stroke-miterlimit="10" x1="200" y1="189.199" x2="157.945" y2="229.704"/>
						
							<line fill="none" stroke="#FFFFFF" stroke-width="5" stroke-miterlimit="10" x1="163.784" y1="244.653" x2="252.933" y2="244.653"/>
						
							<line fill="none" stroke="#FFFFFF" stroke-width="5" stroke-miterlimit="10" x1="263" y1="339.14" x2="331.213" y2="425.162"/>
						<rect x="392.376" y="369.665" fill="#BCAAA4" width="22.326" height="22.326"/>
						<rect x="428.087" y="369.665" fill="#BCAAA4" width="22.326" height="22.326"/>
						<rect x="11.337" y="353.837" fill="#BCAAA4" width="22.326" height="22.326"/>
						
							<line fill="none" stroke="#FFFFFF" stroke-width="5" stroke-miterlimit="10" x1="354.871" y1="626.146" x2="354.843" y2="752.012"/>
						
							<line fill="none" stroke="#FFFFFF" stroke-width="5" stroke-miterlimit="10" x1="365.078" y1="742.902" x2="415.16" y2="629.623"/>
						<rect x="283.567" y="708.998" fill="#BCAAA4" width="11.539" height="31.572"/>
						<rect x="261" y="708.998" fill="#BCAAA4" width="11.539" height="31.572"/>
						<rect x="238.433" y="708.998" fill="#BCAAA4" width="11.54" height="31.572"/>
						<path fill="#BCAAA4" d="M133.206,140.573H115.77c-8.979,0-16.257-7.279-16.257-16.257v-17.437h33.694V140.573z"/>
						<path fill="none" stroke="#FFFFFF" stroke-width="5" stroke-miterlimit="10" d="M354.843,656.672h-46.598
							c-4.654,0-8.427-3.772-8.427-8.427V590"/>
						<line fill="none" stroke="#FFFFFF" stroke-width="5" stroke-miterlimit="10" x1="31.5" y1="524.079" x2="-6" y2="468"/>
						
							<rect x="52.233" y="557.077" transform="matrix(0.7704 -0.6375 0.6375 0.7704 -351.1741 166.9616)" fill="#BCAAA4" width="8.003" height="28"/>
						
							<rect x="53.144" y="574.385" transform="matrix(0.6375 0.7704 -0.7704 0.6375 470.1109 167.4094)" fill="#BCAAA4" width="8.005" height="17.831"/>
						<line fill="none" stroke="#FFFFFF" stroke-width="5" stroke-miterlimit="10" x1="144.719" y1="151.199" x2="144.719" y2="0"/>
						
							<line fill="none" stroke="#FFFFFF" stroke-width="5" stroke-miterlimit="10" x1="656.619" y1="279.093" x2="716.499" y2="375"/>
						<path fill="none" stroke="#FFFFFF" stroke-width="9" stroke-miterlimit="10" d="M42,0v173.088c0,4.782,3.641,8.765,8.4,9.218
							c28.627,2.723,120.6,17.705,120.6,97.816V352.5c0,4.694-3.806,8.5-8.5,8.5h-102c-5.247,0-9.5,4.253-9.5,9.5v155.826
							c0,9.497,3.245,18.708,9.198,26.106l225.37,280.135"/>
						<path fill="none" stroke="#FFFFFF" stroke-width="9" stroke-miterlimit="10" d="M51,427.845h169
							c0,0,57.906-3.006,91.744,38.353"/>
						<path fill="none" stroke="#FFFFFF" stroke-width="9" stroke-miterlimit="10" d="M171,293.791h259.836
							c5.388,0,10.554,2.14,14.363,5.949l121.672,121.672"/>
						
							<line fill="none" stroke="#FFFFFF" stroke-width="9" stroke-miterlimit="10" x1="624.468" y1="246.459" x2="624.468" y2="419.911"/>
						<path fill="none" stroke="#FFFFFF" stroke-width="9" stroke-miterlimit="10" d="M501.569,355.477H393.887
							c-1.006,0-2.011-0.028-3.016-0.064c-4.636-0.169-23.178,0.466-23.178,21.466c0,24,0,48.284,0,48.284"/>
						<path fill="none" stroke="#FFFFFF" stroke-width="9" stroke-miterlimit="10" d="M0,693h299.148c4.5,0,8.148,3.648,8.148,8.148
							V800"/>
						
							<line fill="none" stroke="#FFFFFF" stroke-width="9" stroke-miterlimit="10" x1="495.105" y1="611.749" x2="242.766" y2="864.089"/>
						
							<line fill="none" stroke="#FFFFFF" stroke-width="9" stroke-miterlimit="10" x1="344.134" y1="292.431" x2="344.134" y2="249.975"/>
						<path fill="none" stroke="#FFFFFF" stroke-width="9" stroke-miterlimit="10" d="M119,0v75c0,4.971-4.029,9-9,9H42H0"/>
					</g>
					<path fill="none" stroke="#FFFFFF" stroke-width="9" stroke-miterlimit="10" d="M254.5,293.791c0,0-31.5-7.791-31.5-36.291
						s0-56.168,0-56.168"/>
				</g>
				<rect clip-path="url(#SVGID_2_)" fill="none" width="800" height="800"/>
				
					<path clip-path="url(#SVGID_2_)" fill="none" stroke="#424242" stroke-width="44" stroke-linecap="round" stroke-linejoin="round" stroke-miterlimit="10" d="
					M194.323-15v156.602c0,51.946,42.11,94.057,94.057,94.057h348.564c51.946,0,94.057,42.111,94.057,94.057l0,0
					c0,51.946-42.11,94.057-94.057,94.057H380.592c-51.946,0-94.057,42.11-94.057,94.057v2.767
					c0,51.946,42.111,94.057,94.057,94.057h119.877c51.946,0,94.057,42.111,94.057,94.057V800"/>
				
					<path clip-path="url(#SVGID_2_)" fill="none" stroke="#616161" stroke-width="34" stroke-linecap="round" stroke-linejoin="round" stroke-miterlimit="10" d="
					M194.323-15v156.602c0,51.946,42.11,94.057,94.057,94.057h348.564c51.946,0,94.057,42.111,94.057,94.057l0,0
					c0,51.946-42.11,94.057-94.057,94.057H380.592c-51.946,0-94.057,42.11-94.057,94.057v2.767
					c0,51.946,42.111,94.057,94.057,94.057h119.877c51.946,0,94.057,42.111,94.057,94.057V800"/>
				<g clip-path="url(#SVGID_2_)">
					<g>
						
							<line fill="none" stroke="#FFFFFF" stroke-width="3" stroke-linecap="round" stroke-linejoin="round" x1="194.323" y1="-15" x2="194.323" y2="-7"/>
						
							<path fill="none" stroke="#FFFFFF" stroke-width="3" stroke-linecap="round" stroke-linejoin="round" stroke-dasharray="15.8715,13.8876" d="
							M194.323,6.888v134.714c0,51.946,42.11,94.057,94.057,94.057h348.564c51.946,0,94.057,42.111,94.057,94.057
							s-42.11,94.057-94.057,94.057H380.592c-51.946,0-94.057,42.11-94.057,94.057v2.767c0,51.946,42.111,94.057,94.057,94.057
							h119.877c51.946,0,94.057,42.111,94.057,94.057v89.348"/>
						
							<line fill="none" stroke="#FFFFFF" stroke-width="3" stroke-linecap="round" stroke-linejoin="round" x1="594.525" y1="805" x2="594.525" y2="813"/>
					</g>
				</g>
			</g>
		</g>
	</g>
</g>
</svg>
