<svg xmlns="http://www.w3.org/2000/svg" viewBox="0 0 75 75" xml:space="preserve">
  <path d="M10.7 37.6c.3-2.7.3-5.4.8-8 1.1-5.6 3.3-10.7 7.1-15.1C22 10.6 26.1 7.9 31 6.2c3.6-1.2 7.2-2.1 11-2 3 .1 6.1 0 9.1.5 4.1.6 8.2 1.8 11.8 4 .5.3.6.7.4 1.3-1.2 3.4-2.4 6.9-3.6 10.3-.3.9-.7 1-1.5.6-2.5-1.2-5.2-2-7.9-2.7-3.1-.8-6.2-.9-9.3-.5-5.7.7-10 3.6-12.5 9-1.2 2.6-1.9 5.3-1.9 8.1 0 2.1-.2 4.3.1 6.4.3 2.2.9 4.5 1.6 6.6 1.3 3.8 4 6.4 7.6 8 1.9.8 3.8 1.4 5.9 1.4 2.4 0 4.7.1 7.1-.1 2.8-.3 5.6-.9 8.2-2 .7-.3 1.3-.6 1.9-.9 1.1-.5 1.3-.4 1.7.7.6 1.8 1.2 3.6 1.9 5.4.5 1.3.9 2.6 1.4 4 .5 1.3.3 1.6-.9 2.3-2.6 1.3-5.3 2.1-8.1 2.9-5 1.3-10.2 1.5-15.3 1.3-2.1-.1-4.1-.5-6.1-1-2.2-.5-4.4-1.2-6.5-2.1-5.8-2.5-9.9-6.7-12.7-12.4-1.3-2.6-2-5.3-2.7-8.1-.6-3.1-.8-6.3-1-9.6z" fill="#fff"/>
</svg>