<svg version="1.1" xmlns="http://www.w3.org/2000/svg" x="0" y="0" viewBox="0 0 450 115" xml:space="preserve">
  <path fill="#ffffff" d="M409 6v49l1-1a1722 1722 0 0 0 23-21h9l-23 25c10 9 19 19 25 30v1h-5c-5 1-7-1-10-5-5-7-10-13-17-19l-2-1h-1v25h-10l-1-3V11c0-2 1-3 3-4l8-1zM63 18l-3 9-11-3c-10-2-19-1-25 8-4 4-5 8-6 13-1 7 0 14 2 21 3 9 10 14 20 15 6 0 13-1 19-4h2l3 9-3 1c-10 4-20 5-30 2-11-2-18-9-22-19-5-12-5-24 1-36 5-13 15-20 29-21 7 0 15 1 22 4l2 1zM310 32c14 0 24 10 26 25 0 6 0 12-3 17-4 11-14 17-25 17-13-1-21-11-24-21-2-8-1-17 3-24 4-9 13-14 23-14zm-15 29c-1 5 0 10 3 14 5 8 19 8 23 0 5-8 5-17 2-25-5-12-19-11-24-3-4 4-5 9-4 14zM135 107l2-8 9 1c6 0 10-4 12-10v-2a294 294 0 0 1-21-52v-3h10l2 3 11 32 4 9 6-22 6-22h11l-1 3c-4 18-10 36-17 54-3 5-6 11-10 15-7 5-15 5-23 3l-1-1zM192 87l2-9 4 1c6 2 11 3 17 2 3-1 5-2 6-5 0-3-1-5-3-7l-14-6c-5-3-9-5-11-11-2-8 2-15 10-18 7-3 19-3 26 1l-2 8-11-2-8 1c-2 0-4 2-4 4-1 3 0 5 2 7l8 3 9 5c7 3 10 9 9 16-1 6-5 10-11 12-9 3-19 2-28-1l-1-1zM254 33h20l1 9h-21v32c1 4 4 7 9 7l12-2 2 8-5 2c-5 2-11 2-16 1-7-2-11-6-12-13l-1-11V21c0-2 0-4 3-4l7-1 1 17zM111 16v17h21v9h-21v27l1 5c1 5 3 7 8 7l12-2 2 8-8 3h-13c-5-1-10-5-11-10l-2-16V22l1-4 10-2zM387 80l2 8-6 1c-5 2-11 2-16 1-11-2-19-10-21-22-1-7 0-15 3-21 5-11 16-16 27-15l12 3-3 8-9-1c-11-2-18 4-19 15 0 5 0 10 2 14 2 6 7 10 13 10l15-1zM74 33h11v56H74V33zM79 24c-3 0-6-3-6-7-1-4 3-7 6-7 4 0 7 3 7 7s-3 7-7 7z"/>
</svg>