<?xml version="1.0" encoding="utf-8"?>
<!-- Generator: Adobe Illustrator 16.0.0, SVG Export Plug-In . SVG Version: 6.00 Build 0)  -->
<!DOCTYPE svg PUBLIC "-//W3C//DTD SVG 1.1//EN" "http://www.w3.org/Graphics/SVG/1.1/DTD/svg11.dtd">
<svg version="1.1" id="Capa_1" xmlns="http://www.w3.org/2000/svg" xmlns:xlink="http://www.w3.org/1999/xlink" x="0px" y="0px"
	 width="200px" height="50px" viewBox="0 0 200 50" enable-background="new 0 0 200 50" xml:space="preserve">
<path  d="M63.081,30.172c-0.246,0.087-0.543,0.178-0.887,0.272c-0.487,0.134-1.05,0.201-1.678,0.201
	c-0.957,0-1.652-0.282-2.064-0.84c-0.403-0.542-0.598-1.4-0.598-2.624v-6.115h5.141v-2.331h-5.141v-6.627l-2.882,1.858V27.21
	c0,0.936,0.082,1.778,0.243,2.506c0.159,0.71,0.432,1.32,0.814,1.815c0.378,0.49,0.898,0.869,1.548,1.13
	c0.66,0.264,1.5,0.397,2.497,0.397c0.822,0,1.545-0.085,2.149-0.254c0.523-0.146,0.965-0.291,1.317-0.431L63.081,30.172z"/>
<path  d="M73.591,21.002c0.371,0.077,0.677,0.15,0.927,0.221l0.486-2.365c-0.127-0.036-0.277-0.074-0.448-0.114
	c-0.27-0.063-0.552-0.118-0.841-0.163c-0.289-0.045-0.579-0.081-0.87-0.108c-0.297-0.028-0.542-0.041-0.751-0.041
	c-1.155,0-2.223,0.105-3.17,0.313c-0.878,0.192-1.629,0.398-2.237,0.613v13.37h2.882V21.213l0.159-0.052
	c0.179-0.06,0.475-0.126,0.902-0.202C71.802,20.751,72.796,20.837,73.591,21.002"/>
<path  d="M87.568,23.866c0-0.822-0.094-1.588-0.282-2.274c-0.182-0.67-0.491-1.248-0.916-1.716
	c-0.424-0.467-1.003-0.837-1.719-1.098c-0.726-0.267-1.639-0.401-2.712-0.401c-0.902,0-1.761,0.073-2.556,0.217
	c-0.686,0.125-1.234,0.251-1.634,0.374l0.343,2.245c0.374-0.115,0.826-0.219,1.35-0.309c0.657-0.112,1.386-0.169,2.167-0.169
	c0.597,0,1.104,0.08,1.507,0.237c0.41,0.161,0.747,0.392,1.002,0.686c0.252,0.292,0.431,0.634,0.532,1.017
	c0.097,0.368,0.146,0.759,0.146,1.164v0.845l-0.284-0.068c-0.449-0.107-0.877-0.185-1.271-0.23
	c-0.395-0.045-0.776-0.067-1.134-0.067c-0.773,0-1.523,0.077-2.232,0.229c-0.697,0.149-1.316,0.399-1.843,0.741
	c-0.518,0.337-0.934,0.779-1.237,1.315c-0.302,0.533-0.454,1.202-0.454,1.986c0,0.829,0.136,1.529,0.405,2.084
	c0.267,0.552,0.643,1.006,1.116,1.35c0.479,0.349,1.069,0.605,1.754,0.764c0.699,0.161,1.48,0.244,2.324,0.244
	c1.286,0,2.459-0.079,3.489-0.233c0.912-0.137,1.63-0.258,2.14-0.36V23.866z M84.795,30.63l-0.183,0.038
	c-0.548,0.113-1.354,0.171-2.395,0.171c-0.886,0-1.606-0.164-2.138-0.489c-0.569-0.348-0.856-0.967-0.856-1.841
	c0-0.451,0.106-0.834,0.317-1.14c0.206-0.298,0.482-0.533,0.821-0.697c0.326-0.158,0.691-0.268,1.09-0.325
	c0.833-0.122,1.673-0.106,2.349,0c0.367,0.058,0.638,0.114,0.832,0.174l0.163,0.049V30.63z"/>
<path  d="M98.194,21.096c0.438,0.173,0.79,0.454,1.045,0.832c0.247,0.365,0.426,0.84,0.533,1.413
	c0.104,0.556,0.156,1.235,0.156,2.018v7.369h2.883v-7.895c0-0.954-0.096-1.842-0.283-2.641c-0.186-0.783-0.505-1.458-0.95-2.008
	c-0.442-0.546-1.047-0.979-1.801-1.285c-0.762-0.31-1.728-0.467-2.87-0.467c-1.233,0-2.374,0.083-3.39,0.246
	c-0.928,0.149-1.708,0.308-2.32,0.473v13.577h2.883V21.102l0.193-0.032c0.223-0.037,0.566-0.083,1.031-0.14
	C96.43,20.795,97.467,20.81,98.194,21.096"/>
<path  d="M115.945,29.117c0-0.616-0.079-1.147-0.234-1.581c-0.154-0.426-0.4-0.811-0.734-1.145
	c-0.339-0.34-0.779-0.651-1.311-0.926c-0.541-0.279-1.211-0.568-1.991-0.859c-0.479-0.166-0.896-0.331-1.233-0.491
	c-0.347-0.163-0.63-0.329-0.844-0.496c-0.232-0.178-0.399-0.379-0.498-0.598c-0.097-0.214-0.145-0.46-0.145-0.73
	c0-0.568,0.254-0.994,0.755-1.267c0.456-0.247,1.051-0.373,1.769-0.373c0.77,0,1.457,0.072,2.044,0.214
	c0.457,0.111,0.856,0.232,1.19,0.362l0.503-2.242c-0.367-0.122-0.876-0.249-1.518-0.379c-0.755-0.153-1.558-0.23-2.386-0.23
	c-1.616,0-2.906,0.37-3.837,1.098c-0.926,0.725-1.376,1.691-1.376,2.955c0,0.646,0.101,1.195,0.298,1.632
	c0.197,0.438,0.471,0.817,0.813,1.125c0.352,0.316,0.775,0.597,1.261,0.835c0.496,0.243,1.051,0.478,1.649,0.694
	c1.025,0.381,1.744,0.726,2.197,1.053c0.494,0.357,0.744,0.82,0.744,1.375c0,0.598-0.253,1.046-0.731,1.296
	c-0.442,0.23-1.109,0.344-2.04,0.344c-0.901,0-1.717-0.096-2.423-0.284c-0.582-0.155-1.104-0.319-1.553-0.489l-0.484,2.332
	c0.318,0.117,0.797,0.262,1.426,0.435c0.751,0.205,1.763,0.309,3.006,0.309c1.84,0,3.27-0.343,4.248-1.022
	C115.477,31.395,115.945,30.431,115.945,29.117"/>
<path  d="M130.016,31.017c0.513-0.637,0.912-1.41,1.188-2.3c0.277-0.896,0.418-1.896,0.418-2.971
	c0-1.128-0.167-2.157-0.497-3.058c-0.328-0.895-0.804-1.667-1.414-2.295c-0.609-0.627-1.357-1.115-2.225-1.452
	c-0.873-0.338-1.877-0.509-2.983-0.509c-1.087,0-2.135,0.083-3.112,0.246c-0.898,0.149-1.679,0.309-2.322,0.475v20.068l2.882-0.921
	V32.07l0.342,0.188c0.352,0.194,0.811,0.373,1.362,0.534c0.549,0.158,1.158,0.24,1.814,0.24c0.975,0,1.859-0.181,2.626-0.533
	C128.858,32.148,129.505,31.649,130.016,31.017 M127.773,29.273c-0.605,0.893-1.565,1.345-2.857,1.345
	c-0.577,0-1.129-0.094-1.639-0.276c-0.507-0.182-0.92-0.381-1.228-0.595l-0.1-0.067v-8.559l0.17-0.046
	c0.346-0.096,0.698-0.159,1.051-0.188c0.348-0.028,0.684-0.042,1-0.042c1.558,0,2.71,0.447,3.426,1.328
	c0.703,0.868,1.06,2.088,1.06,3.628C128.656,27.241,128.359,28.409,127.773,29.273"/>
<path  d="M147.2,28.764c0.322-0.911,0.485-1.936,0.485-3.046c0-1.109-0.167-2.128-0.497-3.029
	c-0.329-0.898-0.793-1.677-1.377-2.314c-0.583-0.635-1.294-1.132-2.116-1.477c-0.824-0.345-1.737-0.521-2.715-0.521
	c-0.979,0-1.887,0.175-2.701,0.521c-0.814,0.345-1.527,0.842-2.117,1.479c-0.595,0.637-1.063,1.415-1.391,2.313
	c-0.329,0.899-0.497,1.918-0.497,3.029c0,1.112,0.168,2.136,0.497,3.044c0.329,0.906,0.792,1.688,1.377,2.327
	c0.583,0.637,1.292,1.138,2.105,1.491c0.813,0.354,1.731,0.534,2.727,0.534s1.917-0.18,2.741-0.534
	c0.822-0.354,1.534-0.855,2.118-1.491C146.424,30.451,146.881,29.669,147.2,28.764 M143.75,29.307
	c-0.661,0.906-1.593,1.367-2.77,1.367c-1.178,0-2.11-0.461-2.771-1.367c-0.644-0.882-0.969-2.09-0.969-3.589
	c0-1.481,0.326-2.675,0.97-3.549c0.66-0.896,1.592-1.351,2.77-1.351c1.176,0,2.107,0.454,2.769,1.351
	c0.644,0.875,0.97,2.07,0.97,3.549C144.719,27.216,144.394,28.424,143.75,29.307"/>
<path  d="M157.583,21.002c0.37,0.077,0.676,0.15,0.926,0.221l0.486-2.365c-0.127-0.036-0.276-0.074-0.447-0.114
	c-0.271-0.063-0.553-0.118-0.841-0.163c-0.29-0.045-0.58-0.081-0.869-0.108c-0.297-0.028-0.543-0.041-0.752-0.041
	c-1.157,0-2.224,0.105-3.17,0.313c-0.878,0.192-1.63,0.398-2.237,0.613v13.37h2.883V21.213l0.157-0.052
	c0.182-0.06,0.477-0.126,0.903-0.202C155.794,20.751,156.787,20.837,157.583,21.002"/>
<path  d="M169.758,30.172c-0.246,0.087-0.543,0.178-0.888,0.272c-0.485,0.134-1.051,0.201-1.677,0.201
	c-0.957,0-1.651-0.282-2.064-0.84c-0.401-0.542-0.598-1.4-0.598-2.624v-6.115h5.14v-2.331h-5.14v-6.627l-2.883,1.858V27.21
	c0,0.936,0.081,1.778,0.244,2.506c0.157,0.71,0.431,1.32,0.813,1.815c0.377,0.49,0.897,0.869,1.548,1.13
	c0.66,0.264,1.499,0.397,2.497,0.397c0.822,0,1.545-0.085,2.148-0.254c0.524-0.146,0.966-0.291,1.318-0.431L169.758,30.172z"/>
<path  d="M182.897,32.53c0.228-0.071,0.42-0.141,0.574-0.206l-0.368-2.281c-0.363,0.132-0.818,0.258-1.358,0.377
	c-0.685,0.149-1.448,0.227-2.272,0.227c-1.434,0-2.548-0.34-3.316-1.011c-0.771-0.674-1.211-1.632-1.307-2.85l-0.021-0.249h9.57
	c0.011-0.124,0.018-0.258,0.022-0.4c0.01-0.226,0.015-0.431,0.015-0.612c0-2.379-0.542-4.188-1.613-5.373
	c-1.063-1.178-2.573-1.775-4.484-1.775c-0.814,0-1.623,0.157-2.402,0.468c-0.778,0.31-1.477,0.775-2.076,1.384
	c-0.602,0.61-1.091,1.388-1.455,2.313c-0.366,0.927-0.551,2.023-0.551,3.259c0,1.059,0.145,2.044,0.431,2.927
	c0.283,0.878,0.723,1.647,1.307,2.293c0.581,0.645,1.332,1.153,2.236,1.516c0.907,0.365,1.994,0.55,3.229,0.55
	c0.487,0,0.972-0.027,1.438-0.081c0.475-0.055,0.919-0.123,1.321-0.204C182.222,32.72,182.585,32.629,182.897,32.53 M174.878,24.278
	c0.057-0.438,0.163-0.872,0.315-1.292c0.156-0.429,0.38-0.815,0.663-1.148c0.286-0.335,0.64-0.61,1.054-0.817
	c0.417-0.208,0.906-0.314,1.456-0.314c0.53,0,0.996,0.096,1.386,0.287c0.388,0.189,0.721,0.451,0.99,0.779
	c0.265,0.325,0.47,0.713,0.607,1.155c0.135,0.436,0.204,0.9,0.204,1.381v0.23h-6.71L174.878,24.278z"/>
<path  d="M194.877,21.002c0.37,0.077,0.677,0.15,0.926,0.221l0.486-2.365c-0.127-0.036-0.276-0.074-0.447-0.114
	c-0.27-0.063-0.552-0.118-0.84-0.163c-0.291-0.045-0.58-0.081-0.87-0.108c-0.297-0.028-0.543-0.041-0.752-0.041
	c-1.157,0-2.224,0.105-3.17,0.313c-0.877,0.192-1.63,0.398-2.236,0.613v13.37h2.882V21.213l0.158-0.052
	c0.181-0.06,0.476-0.126,0.902-0.202C193.088,20.751,194.081,20.837,194.877,21.002"/>
<polygon  points="39.697,13.883 46.366,4.368 10.584,4.368 3.915,13.883 17.068,13.883 17.068,10.94 9.572,10.94 
	12.116,7.312 40.708,7.312 38.165,10.94 20.424,10.94 20.424,47.397 30.103,33.624 30.103,16.79 27.16,16.79 27.16,32.693 
	23.368,38.09 23.368,13.883 "/>
</svg>
