<?xml version="1.0" encoding="utf-8"?>
<!-- Generator: Adobe Illustrator 16.0.0, SVG Export Plug-In . SVG Version: 6.00 Build 0)  -->
<!DOCTYPE svg PUBLIC "-//W3C//DTD SVG 1.1//EN" "http://www.w3.org/Graphics/SVG/1.1/DTD/svg11.dtd">
<svg version="1.1" id="Capa_1" xmlns="http://www.w3.org/2000/svg" xmlns:xlink="http://www.w3.org/1999/xlink" x="0px" y="0px"
	 width="228.889px" height="147px" viewBox="0 0 228.889 147" enable-background="new 0 0 228.889 147" xml:space="preserve">
<g>
	<path fill-rule="evenodd" clip-rule="evenodd" fill="#009FE3" d="M28.19,58.962h14.579c7.826,0,10.773,3.962,10.318,9.792
		c-0.75,9.611-6.562,14.926-14.269,14.926h-3.892c-1.057,0-1.767,0.698-2.055,2.596l-1.669,11.019
		c-0.108,0.716-0.485,1.136-1.051,1.188H21.01c-0.86,0-1.166-0.659-0.941-2.084l5.583-35.345
		C25.875,59.637,26.65,58.962,28.19,58.962z"/>
	<path fill-rule="evenodd" clip-rule="evenodd" fill="#143A84" d="M91.476,58.309c4.919,0,9.457,2.668,8.836,9.318
		c-0.737,7.884-4.986,12.276-11.669,12.293h-5.83c-0.84,0-1.245,0.684-1.465,2.089l-1.125,7.178
		c-0.169,1.083-0.725,1.617-1.548,1.617h-5.429c-0.866,0-1.168-0.553-0.975-1.79l4.488-28.765c0.221-1.415,0.762-1.941,1.72-1.941
		H91.476L91.476,58.309z M82.631,73.707l4.423,0.001c2.765-0.104,4.603-2.019,4.788-5.475c0.114-2.134-1.326-3.66-3.621-3.649
		l-4.164,0.018L82.631,73.707L82.631,73.707z M115.071,88.6c0.495-0.449,1.001-0.686,0.928-0.128l-0.177,1.333
		c-0.091,0.693,0.186,1.065,0.834,1.065h4.823c0.812,0,1.208-0.329,1.407-1.585l2.973-18.657c0.149-0.938-0.076-1.397-0.789-1.397
		h-5.304c-0.478,0-0.709,0.269-0.835,0.999l-0.197,1.148c-0.102,0.6-0.375,0.703-0.631,0.1c-0.9-2.131-3.195-3.086-6.413-3.02
		C104.25,68.611,99.233,74.26,98.697,81.5c-0.415,5.6,3.599,9.998,8.887,9.998C111.422,91.497,113.138,90.354,115.071,88.6
		L115.071,88.6z M111.034,85.734c-3.203,0-5.435-2.555-4.969-5.687s3.458-5.686,6.66-5.686s5.436,2.554,4.97,5.686
		S114.237,85.734,111.034,85.734L111.034,85.734z M135.306,69.172h-4.872c-1.011,0-1.421,0.739-1.1,1.679l6.072,17.784l-5.984,8.459
		c-0.499,0.705-0.114,1.352,0.591,1.352h5.498c0.821,0,1.221-0.21,1.634-0.803l18.678-26.792c0.575-0.826,0.304-1.689-0.64-1.69
		l-5.197-0.004c-0.894-0.002-1.251,0.352-1.763,1.094l-7.791,11.303l-3.467-11.322C136.752,69.532,136.243,69.172,135.306,69.172z"
		/>
	<path fill-rule="evenodd" clip-rule="evenodd" fill="#009FE3" d="M175.26,58.309c4.92,0,9.457,2.668,8.837,9.318
		c-0.737,7.884-4.986,12.276-11.67,12.293h-5.83c-0.841,0-1.244,0.684-1.465,2.089l-1.125,7.178
		c-0.17,1.083-0.726,1.617-1.548,1.617h-5.43c-0.866,0-1.168-0.553-0.975-1.79l4.488-28.765c0.221-1.415,0.761-1.941,1.721-1.941
		H175.26L175.26,58.309z M166.416,73.707l4.423,0.001c2.765-0.104,4.604-2.019,4.788-5.475c0.113-2.134-1.327-3.66-3.621-3.649
		l-4.163,0.018L166.416,73.707L166.416,73.707z M198.854,88.6c0.496-0.449,1.003-0.686,0.93-0.128l-0.177,1.333
		c-0.092,0.693,0.186,1.065,0.833,1.065h4.823c0.812,0,1.208-0.329,1.409-1.585l2.972-18.657c0.149-0.938-0.078-1.397-0.79-1.397
		h-5.302c-0.479,0-0.711,0.269-0.836,0.999l-0.196,1.148c-0.104,0.6-0.377,0.703-0.632,0.1c-0.901-2.131-3.196-3.086-6.415-3.02
		c-7.44,0.152-12.456,5.801-12.992,13.041c-0.415,5.6,3.599,9.998,8.888,9.998C195.206,91.497,196.923,90.354,198.854,88.6
		L198.854,88.6z M194.819,85.734c-3.202,0-5.435-2.555-4.97-5.687c0.467-3.132,3.459-5.686,6.661-5.686
		c3.203,0,5.435,2.554,4.969,5.686S198.021,85.734,194.819,85.734L194.819,85.734z M217.068,90.903H211.5
		c-0.441,0-0.748-0.347-0.682-0.77l4.896-30.989c0.066-0.424,0.483-0.771,0.926-0.771h5.567c0.442,0,0.749,0.347,0.682,0.771
		l-4.896,30.989C217.927,90.557,217.511,90.903,217.068,90.903z"/>
	<path fill-rule="evenodd" clip-rule="evenodd" fill="#143A84" d="M19.076,46.798h14.593c4.11,0,8.984,0.134,12.246,3.01
		c2.178,1.921,3.321,4.982,3.058,8.268c-0.895,11.144-7.561,17.385-16.499,17.385h-7.197c-1.225,0-2.037,0.812-2.382,3.01
		l-2.008,12.777c-0.13,0.828-0.49,1.316-1.146,1.376h-8.99c-0.998,0-1.352-0.764-1.091-2.416l6.473-40.984
		C16.392,47.581,17.291,46.798,19.076,46.798z"/>
	<path fill-rule="evenodd" clip-rule="evenodd" fill="#1B2D70" d="M23.104,77.183l2.548-16.13c0.223-1.417,0.999-2.091,2.538-2.091
		h14.579c2.413,0,4.363,0.377,5.891,1.072c-1.465,9.917-7.879,15.427-16.279,15.427h-7.197
		C24.236,75.461,23.528,75.945,23.104,77.183z"/>
</g>
</svg>
