<svg version="1.1" xmlns="http://www.w3.org/2000/svg" x="0" y="0" viewBox="0 0 830 125" xml:space="preserve">
  <path fill="#a7a7a7" d="M635.5 52.8c2.2 1 4 1.8 5.7 2.8 5.4 2.9 8.9 7.3 9.7 13.4 1 6.9.3 13.7-4.2 19.6-3.6 4.7-8.4 7.3-13.9 8.8-11 3-22.1 3.1-33.3 1.9-2.8-.3-5.7-.7-8.5-.9-2.3-.1-2.9-1.2-2.9-3.4.1-5.5 0-11 0-16.5V17.1c0-3.5.2-3.9 3.6-4.2 7.2-.6 14.4-1.5 21.6-1.4 7.8.2 15.6.9 22.8 4.6 7.5 4 11 10.4 11 18.5 0 6.8-2.7 12.6-8.9 16.3-.8.6-1.6 1.2-2.7 1.9zM600.2 74c0 4.1.1 8.2 0 12.4-.1 2.2.5 3.1 2.9 3.1 5.7-.2 11.5.1 17.2-.2 4.3-.2 8.3-1.5 12.1-3.5 8.3-4.6 7.7-16.9 3.1-21.5-2.9-2.9-6.7-4.5-10.7-4.8-7.3-.5-14.7-.5-22-.8-2.1-.1-2.5.9-2.5 2.7-.1 4.1-.1 8.4-.1 12.6zm0-38.5c0 3.7.1 7.5 0 11.2 0 1.6.6 2.2 2.2 2.2 5.1-.1 10.3.2 15.4-.2 3.7-.2 7.4-.9 10.8-2.7 4.6-2.6 7-8.4 5.8-13.4-1.3-5.4-5.1-7.8-9.8-9.2-7.3-2.3-14.8-1.5-22.3-1.5-1.7 0-2.1.9-2.1 2.3v11.3zM815.8 93.2c-2.4.8-4.7 1.8-7.1 2.4-11 2.7-21.1 1-29.2-7.4-4.7-4.9-6.7-11.1-7.4-17.6-.7-6.3-.4-12.7 2-18.8 4.5-11.3 12.8-17.3 24.7-18.8 9.1-1.2 17.8.7 26.6 2.4 1.9.4 2.7 1.2 2.7 3.3-.1 6.5 0 13 0 19.5 0 11.7.1 23.5-.1 35.2-.1 3.9-.6 8-1.5 11.8-2.4 9.4-9.1 14.5-18.2 16.2-9.7 1.9-19.6 1.6-29.2-1.2-3.5-1-3.5-1.1-2.8-4.5.5-2 .4-5 1.7-5.8 1.3-.8 3.9.6 5.9 1 6.5 1.3 12.9 2.2 19.6 1 8.8-1.7 11.5-6 12.6-13.9.2-1.2.1-2.5 0-3.7.1-.3-.1-.6-.3-1.1zm.4-29.6c0-5.4-.2-10.8.1-16.1.1-2.4-.9-3.5-3-3.7-3.5-.4-7-.9-10.4-.7-7.9.3-13.9 3.9-16.8 11.5-2.5 6.6-2.8 13.3-.6 20.1 1.1 3.5 3.1 6.4 6 8.8 5.7 4.7 17.4 3.7 23.4-.3.8-.5 1.3-2.1 1.3-3.1.1-5.5 0-11 0-16.5zM698.4 67.2c-.2-9.1 2-17 7.3-23.9 4.3-5.6 10-8.8 16.8-10.2 9.7-2 18.5.1 26.1 6.7 4.9 4.3 7.9 9.8 9.4 16.2 2.6 11.5 1.8 22.6-5.1 32.5-5.3 7.8-13 11.7-22.4 12.1-10 .5-18.4-2.8-24.7-10.6-5.5-6.7-7.8-14.6-7.4-22.8zm49.2-.7c-.6-3.5-.9-7.2-2-10.6-3.5-11.3-13.6-15.6-23.5-11.9-4.8 1.8-7.6 5.5-9.4 10-3 7.5-3.1 15.3-.7 23 2.9 9.5 8.6 13.5 18.6 13.1 5.5-.2 9.7-2.9 12.6-7.5 2.9-4.9 3.9-10.3 4.4-16.1z"/>
  <path d="M667.6 45.5V7.3c0-2.1.1-3.6 2.9-3.6 1.8 0 3.6-.8 5.5-1.1 2.6-.5 3.1-.2 3.1 2.5v74.6c0 2 .2 4.1.8 5.9.9 2.6 3.1 4.1 5.9 4.6 3.2.6 3.2.7 2.5 3.9-.1.2-.2.5-.2.7-1.1 6-1.1 6.2-7 5.1-7.8-1.5-13.1-5-13.3-15.3-.3-13.1-.1-26.1-.2-39.1.1 0 .1 0 0 0z" fill="#a6a6a6"/>
  <path fill="#fff" d="M475.9 67.7v28c0 3.7.4 3.5-3.4 3.5-2.1 0-4.2-.1-6.4 0-1.3 0-1.8-.5-1.7-1.7V7.9c0-3.7 0-3.7 3.7-4.4 1.6-.3 3.2-.6 4.8-.8 2.9-.5 3-.4 3 2.4V61c1.1-.9 1.9-1.4 2.5-2.1 7.2-7.6 14.5-15.2 21.6-22.9 1.3-1.4 2.6-2.1 4.5-2 3.3.1 6.6 0 9.9 0 .1.3.3.5.4.8-8.8 9.4-17.7 18.8-26.8 28.5 11.7 10.2 21.4 22.2 29.8 35.8-4.5 0-8.3-.1-12.2 0-1.8 0-2.3-1.2-3-2.4-5.9-9-12.8-17.2-20.9-24.3-1.6-1.4-3.4-2.7-5.8-4.7zM66.2 85.5c.9 2.9 1.5 5.5 2.5 7.9.8 2 0 2.9-1.6 3.3-4.4 1.2-8.8 2.7-13.3 3.5-7.4 1.3-14.9 1.4-22.3-.5C20.9 96.9 12.5 91 7.8 81 0 64.1-.4 46.9 8.6 30.3 15.4 17.7 26.8 11.5 41 10.6c8.6-.5 16.9.7 24.8 4.3 2.9 1.4 2.9 1.4 1.9 4.4-.8 2.2-1.6 4.4-2.3 6.4-5.1-1.4-10-3.2-15.1-4.1-17.2-3-30.6 6.2-34.2 23.4-1.8 8.8-1.5 17.6 1.3 26.3 3.9 12 12.8 18.4 25.5 18.8 8 .4 15.6-1.1 23.3-4.6zM359.2 100.7c-13.9.2-26.7-9-29.7-26.3a41.8 41.8 0 0 1 2.2-23.2c4.7-11.7 14.9-18.6 27.3-18.8 12.7-.1 23.1 6.5 27.9 18.4 4.5 11.2 4.4 22.5-.8 33.4-5.4 11.1-14.7 16.4-26.9 16.5zm-18.1-34c.1 2 .1 4 .4 6 .8 5.4 2.7 10.4 7.1 14.1 8.5 7.1 21.6 3.9 26.5-6.4 3.2-6.8 3.3-14.1 1.9-21.3-.5-2.9-1.7-5.7-3.2-8.3-5.9-10.7-23.1-11-29.4.8-2.5 4.7-3.3 9.8-3.3 15.1zM156.5 34c3.7 0 7.2.1 10.7 0 2.1-.1 2 1.5 2.4 2.7 2.1 6.9 3.9 13.9 6.3 20.7 2.7 7.9 5.9 15.6 8.9 23.4.6 1.6 1.4 3.1 2.4 5.2.6-1.2 1-2 1.3-2.8 5.3-14.8 9.1-30 12.8-45.3.9-3.9.9-3.9 4.8-3.9 2 0 4 .1 6 0 1.8-.1 2.1.7 1.7 2.3-5.9 23-12.8 45.6-22.5 67.3-1.6 3.6-3.8 7-6.3 10.2-7.6 9.8-19.9 10-28.6 7.6-1.3-.4-1.9-1-1.5-2.5.6-2.4 1.2-4.8 1.7-7 3.4.3 6.6.9 9.8.9 7.7 0 12-4.4 15.3-11.7.4-1-.2-2.6-.8-3.8-4.7-10.7-9.9-21.2-14.3-32.1-3.6-9-6.3-18.4-9.3-27.6-.4-1-.5-2.2-.8-3.6zM223.7 86.9c6.2 2.6 12.1 4 18.3 3.8 2.7-.1 5.5-.3 8.1-1.1 6.1-1.8 7.5-8.7 2.7-12.9a26.5 26.5 0 0 0-5-3.2c-3.9-1.9-8-3.5-12-5.3-1.8-.8-3.6-1.7-5.3-2.7a17.12 17.12 0 0 1 0-29.1c6-3.8 12.7-4.5 19.5-3.8 4 .4 7.8 1.4 11.8 2 1.7.3 2.2 1.1 1.7 2.9-.7 2.5-1.1 5-1.6 7.2-4.3-.8-8.3-1.7-12.4-2.4-3.6-.6-7.3-.1-10.6 1.4-5.4 2.3-6.4 8.6-2.1 12.5 1.5 1.4 3.5 2.4 5.4 3.2 4.4 2 9 3.6 13.5 5.6 4.9 2.2 9.3 5.2 10.7 10.7 3.2 12.4-1.5 21-14.6 23.8-9 1.9-18.1 1.5-27-1.4-3.3-1.1-3.3-1.1-2.6-4.3.5-2.1 1-4.2 1.5-6.9zM281.5 48.1c0-9.7.1-19.5-.1-29.2 0-2.1.4-3.2 2.7-3.4 2.9-.2 5.9-.6 8.8-.9.1 2.7.3 5.4.3 8.2.1 2.4 0 4.7 0 7.1 0 4.5-.4 4.1 3.9 4.1H314c3.8 0 3.8 0 3.8 3.6.1 6.3.1 6.3-6.2 6.3-5.2 0-10.5.1-15.7 0-1.9 0-2.7.5-2.6 2.5.1 10.6.1 21.2.2 31.9 0 1.5.4 3 .8 4.4 1.3 4.8 4.1 7 9.1 7.4 4.2.3 8.3 0 12.1-1.8 2.1-1 2.9-.3 3.3 1.7 1.4 8.2 3.7 6.6-5.4 9.4-5.6 1.7-11.4 1.6-17.1.4-7.7-1.7-12.7-7.3-13.9-15.7-.5-3.3-.7-6.7-.8-10.1-.2-8.6-.1-17.3-.1-25.9zM113.4 49c0-10.1.1-20.2 0-30.4 0-2 .5-2.9 2.5-3.1 2.2-.2 4.4-.7 6.6-1.1 1.8-.4 2.4.3 2.4 2.1-.1 4.9.1 9.7-.1 14.6-.1 2.3.6 3 2.9 3 6.2-.1 12.5-.1 18.7 0 3 0 3 0 3 3.1.1 6.6.1 6.6-6.6 6.6-5.1 0-10.2.1-15.4 0-1.8 0-2.7.4-2.7 2.5.2 10.9.3 21.7.5 32.6 0 1.5.4 3 .8 4.4 1.4 4.5 4 6.5 8.7 6.9 4.2.3 8.2-.1 12.1-1.6 2.7-1 2.7-1 3.5 1.7.2.6.3 1.2.5 1.8 1.3 5.7 2.2 5-4.2 7-5.9 1.9-12 2.1-18.1.9-6.7-1.4-11.4-5.2-13.4-11.7-1-3.4-1.6-7.1-1.7-10.7-.1-9.6 0-19.1 0-28.6zM450.2 87.9c.5 2.7 1.1 5.4 1.4 8.1.1.7-.8 1.9-1.4 2.1-11.6 3.3-23.1 4.3-34-2.4-5.8-3.5-9.5-8.8-11.5-15.2a43.8 43.8 0 0 1-.6-25.1c4.9-17.7 19.2-24.6 34.7-22.7 3.2.4 6.3 1.3 9.5 1.9 1.9.4 2.9 1.2 2 3.3-.7 1.6-1.1 3.3-1.4 5-.3 2.1-1.2 2.2-3.1 1.6-5.3-1.8-10.7-2.4-16.2-1.3-6.8 1.4-11.1 5.5-13.2 11.9-2.3 7.2-2.4 14.5-.2 21.8 2.4 8 8.4 12.7 16.8 13.1 2.9.1 5.8.2 8.6-.2 2.8-.2 5.5-1.1 8.6-1.9zM94.1 66.6c0 9.9-.1 19.7 0 29.6 0 2.2-.5 3.2-2.9 3-2.7-.3-5.5-.2-8.2-.3-.2-2.7-.4-5.4-.5-8.1V38.7c0-5.5-.7-4.6 4.8-4.7 1.2 0 2.5.1 3.7 0 2.4-.3 2.9.7 2.9 3 .2 9.8.2 19.7.2 29.6zM95.9 14.8a7.55 7.55 0 1 1-15.1-.4c.2-4.3 3.5-7.5 7.7-7.4 4.2.2 7.4 3.6 7.4 7.8z"/>
</svg>