<svg xmlns="http://www.w3.org/2000/svg" viewBox="0 0 1000 405" height="405" width="1000">
    <defs>
        <pattern id="a___1016934663" data-name="2/3 - black" width="5" height="5" patternTransform="translate(-69 289.8)" patternUnits="userSpaceOnUse" viewBox="0 0 5 5">
            <path fill="none" d="M0 0h5v5H0z"></path>
            <path d="M0 0h2v2H0z"></path>
        </pattern>
    </defs>
    <circle cx="861.62" cy="348.38" r="55.61"></circle>
    <path d="M965.71 364a22.73 22.73 0 0 0 .29-3.61V321h-10.53a5.32 5.32 0 0 1-1.63-10.39l11.25-3.6a38.35 38.35 0 0 0-25.8-28.22l-101.4-32.31a337 337 0 0 1-39.12-15.21l-141.42-65.4A301.74 301.74 0 0 0 530.69 138H71.79a3.19 3.19 0 0 0-2.26 5.44 8.74 8.74 0 0 1 1.65 10.09l-28.83 57.83A79.41 79.41 0 0 0 34 246.8v88.3a47.64 47.64 0 0 0 9.71 28.9h922z" class="transporter-fill"></path>
    <path d="M951.7 319.44a5.28 5.28 0 0 0 3.76 1.56h10.61v-5.29a38.72 38.72 0 0 0-1-8.68l-11.25 3.61a5.33 5.33 0 0 0-2.12 8.8z" fill="#fff"></path>
    <path d="M949.66 355.21A13.27 13.27 0 0 1 963 342H806v15h145.47a1.8 1.8 0 0 1-1.81-1.79z"></path>
    <path d="M963.59 342a13.32 13.32 0 0 0-13.44 13.21A1.81 1.81 0 0 0 952 357h14.17v-15h-2.56z" fill="#fff"></path>
    <path d="M779.09 235.5c-40.7-18.7-126.91-58.44-126.91-58.44A290.4 290.4 0 0 0 592 157l89 88h96a5 5 0 0 0 2.09-9.5zM43 364a48.17 48.17 0 0 0 38.47 19H943.6a22.55 22.55 0 0 0 22.4-19H43zm26.49-78.94l5-5.06a5 5 0 0 0 0-7.11l-19.83-19.95a10 10 0 0 0-7.09-2.94H34v38h28.4a10 10 0 0 0 7.09-2.94z"></path>
    <path d="M820.45 319.28a5.3 5.3 0 0 0-2.14-8.79L737 284.55a3 3 0 0 0-3 5l15.19 15.19a54.62 54.62 0 0 0 38.42 16l29.13.11a5.3 5.3 0 0 0 3.71-1.57z" fill="#fff"></path>
    <path d="M234 383v-35a64 64 0 1 0-128 0v35"></path>
    <circle cx="170.42" cy="348.38" r="55.61"></circle>
    <circle cx="170.42" cy="348.38" r="37.5" fill="#fff"></circle>
    <path d="M170.42 322.59v19.15a6.63 6.63 0 0 1 6.63 6.63h19.15a25.78 25.78 0 0 0-25.78-25.78zm-6.63 25.79h-19.16a25.78 25.78 0 0 0 25.78 25.78V355a6.63 6.63 0 0 1-6.62-6.62z" fill="#d6d6d6"></path>
    <path d="M610 383v-35a64 64 0 1 1 128 0v35"></path>
    <circle cx="673.68" cy="348.38" r="55.61"></circle>
    <circle cx="673.68" cy="348.38" r="37.5" fill="#fff"></circle>
    <path d="M691.92 330.15l-13.54 13.54a6.63 6.63 0 0 1 0 9.37l13.54 13.54a25.78 25.78 0 0 0 0-36.45zM669 343.69l-13.54-13.54a25.78 25.78 0 0 0 0 36.46L669 353.06a6.63 6.63 0 0 1 0-9.37z" fill="#d6d6d6"></path>
    <path d="M124.7 246H618a5 5 0 0 0 2.1-9.54C579.33 217.69 493 177.79 493 177.79A291.76 291.76 0 0 0 371.3 151H135.93A35.65 35.65 0 0 0 104 170.74l-19.49 39.15a14.38 14.38 0 0 0 2.71 16.59l6.84 6.84A43.35 43.35 0 0 0 124.7 246z"></path>
    <path d="M554.6 309h-265a40 40 0 0 0-40 40h345a40 40 0 0 0-40-40zm-505.68 0h23.27a19.24 19.24 0 0 1 19.24 19.24V349H68.16a19.24 19.24 0 0 1-19.24-19.24V309z" fill="url(#a___1016934663)"></path>
    <path d="M771.11 348.34l4.89 4.76a13.69 13.69 0 0 0 9.59 3.9h34.63a1.81 1.81 0 0 0 1.83-1.79A13.32 13.32 0 0 0 808.56 342h-34.77a3.7 3.7 0 0 0-2.68 6.34z" fill="#fff"></path>
    <path d="M923.5 311h-75a21.86 21.86 0 0 0-15.3 6.21l-7.35 7.21a6.11 6.11 0 0 0 0 8.77 6.39 6.39 0 0 0 4.47 1.82h111.35a6.39 6.39 0 0 0 4.47-1.82 6.11 6.11 0 0 0 0-8.77l-7.35-7.21A21.85 21.85 0 0 0 923.5 311z"></path>
    <circle cx="891.08" cy="299.74" r="4.84" fill="#fff"></circle>
    <path d="M823.23 331h125.54a6.25 6.25 0 0 0 .23-2H823a6.26 6.26 0 0 0 .23 2zm3.81-9l-2.04 2h122l-2.04-2H827.04m4.26-4.29l-.3.29h110l-.3-.29a22.13 22.13 0 0 0-2-1.71H833.33a22.13 22.13 0 0 0-2.03 1.71z" class="illustration-tertiary-fill"></path>
    <rect x="867" y="349" width="49" height="17" rx="2.65" ry="2.65" fill="#d6d6d6"></rect>
    <path d="M579.36 247.46c-15.72-7.24-38.22-17.63-59.93-27.66a6 6 0 0 0-8.47 5.42V257h66.3a5 5 0 0 0 2.1-9.54z" class="illustration-tertiary-fill"></path>
    <path d="M681 245l-89-88s-19.56-7-61.22-7H455a300.74 300.74 0 0 1 42.49 15.9l141.26 65.48A336.08 336.08 0 0 0 672.91 245H681z" fill="#fff"></path>
</svg>